<svg xmlns="http://www.w3.org/2000/svg" width="233" height="66" fill="none"><g clip-path="url(#a)"><path fill="#000" d="M77.94 17.4a14.403 14.403 0 0 1 10.252 3.914.782.782 0 0 1 0 1.183l-2.578 2.653a.68.68 0 0 1-1.06 0 10.024 10.024 0 0 0-6.524-2.484 9.63 9.63 0 0 0-3.688.794 9.594 9.594 0 0 0-3.095 2.147 9.534 9.534 0 0 0-2.023 3.168 9.492 9.492 0 0 0-.637 3.698 9.49 9.49 0 0 0 .665 3.684 9.534 9.534 0 0 0 2.038 3.145 9.595 9.595 0 0 0 3.098 2.124 9.637 9.637 0 0 0 3.682.775 10.215 10.215 0 0 0 6.485-2.394.772.772 0 0 1 1.059 0l2.618 2.692a.807.807 0 0 1 .177.881.806.806 0 0 1-.177.262 14.613 14.613 0 0 1-10.292 4.054 15.292 15.292 0 0 1-10.782-4.44 15.12 15.12 0 0 1-4.467-10.723 15.12 15.12 0 0 1 4.467-10.722 15.291 15.291 0 0 1 10.782-4.442v.03Zm14.149 28.806 13.17-28.32a.76.76 0 0 1 .719-.467h.43a.72.72 0 0 1 .719.467l13.04 28.32a.73.73 0 0 1-.326 1.025.74.74 0 0 1-.393.068h-3.687a1.224 1.224 0 0 1-.758-.21 1.211 1.211 0 0 1-.471-.625l-2.069-4.55h-12.67l-2.069 4.55a1.284 1.284 0 0 1-1.229.835h-3.687a.753.753 0 0 1-.684-.335.743.743 0 0 1-.035-.758Zm18.296-8.943-4.237-9.261h-.13l-4.097 9.231 8.464.03Zm19.235-19.228a.705.705 0 0 1 .759-.636h.68a.781.781 0 0 1 .719.418l9.313 19.873h.13l9.313-19.873a.734.734 0 0 1 .719-.418h.68a.712.712 0 0 1 .759.636l4.996 28.3a.738.738 0 0 1-.105.711.733.733 0 0 1-.664.283h-3.837a.934.934 0 0 1-.81-.626l-2.498-15.969h-.13L142.24 47.29a.729.729 0 0 1-.719.467h-.77a.771.771 0 0 1-.719-.467l-7.494-16.555h-.13l-2.458 15.969a.815.815 0 0 1-.76.626h-3.807a.781.781 0 0 1-.827-.622.78.78 0 0 1 .018-.372l5.046-28.3Zm35.143.587a.81.81 0 0 1 .809-.805h9.693c4.996 0 8.943 3.368 8.943 7.8 0 3.24-2.668 5.763-4.667 6.687 2.249.716 5.506 2.981 5.506 6.867 0 4.72-4.057 8.128-9.233 8.128h-10.242a.804.804 0 0 1-.748-.488.805.805 0 0 1-.061-.307V18.622Zm9.992 11.586a3.657 3.657 0 0 0 2.644-1.118 3.596 3.596 0 0 0 1.003-2.678 3.422 3.422 0 0 0-1.026-2.592 3.469 3.469 0 0 0-2.621-.985h-4.527v7.373h4.527Zm.6 12.123a3.795 3.795 0 0 0 2.718-1.118 3.748 3.748 0 0 0 1.089-2.718c0-2.097-2.119-3.657-4.317-3.657h-4.617v7.493h5.127Zm17.056-23.709a.806.806 0 0 1 .81-.805h3.897a.84.84 0 0 1 .799.805v23.63h10.802a.802.802 0 0 1 .747.487.788.788 0 0 1 .062.307v3.458a.788.788 0 0 1-.237.566.81.81 0 0 1-.572.229h-15.498a.804.804 0 0 1-.748-.488.788.788 0 0 1-.062-.307V18.622Zm25.161 14.488-9.653-14.071a.787.787 0 0 1-.035-.818.785.785 0 0 1 .715-.404h4.317a.852.852 0 0 1 .679.387l6.775 9.679 6.775-9.679a.852.852 0 0 1 .679-.388h4.367a.784.784 0 0 1 .717.404.765.765 0 0 1-.048.819l-9.782 14.03v13.435a.83.83 0 0 1-.8.795h-3.897a.81.81 0 0 1-.571-.23.787.787 0 0 1-.238-.565V33.11Z"/><path fill="#FFC929" d="M27.729 57.623c15.314 0 27.728-12.345 27.728-27.574 0-15.23-12.414-27.575-27.728-27.575C12.415 2.474 0 14.82 0 30.05s12.415 27.574 27.729 27.574Z"/><path fill="#353535" d="M30.976 56.49v5.168c.016.474-.113.941-.37 1.341-.55.805-1.079 1.62-1.608 2.444-.094.157-.22.293-.37.398a.812.812 0 0 1-.5.159c-2.148-.07-4.146-.12-6.315-.219a.331.331 0 0 1-.37-.308c0-.218.32-.328.52-.407 0 0 4.607-1.987 6.995-2.981a.859.859 0 0 0 .46-.348c.105-.202.153-.428.14-.656v-9.937c.459-.05.998-.158 1.418-.248v5.594Zm13.31 6.112s0 .208-.17.208H33.674a3.32 3.32 0 0 1-.53 0 .48.48 0 0 1-.32-.228.81.81 0 0 1-.08-.288 2.835 2.835 0 0 1 0-.547V50.43c.44-.13 1-.348 1.38-.517v9.937a.523.523 0 0 0 0 .199.157.157 0 0 0 0 .08.43.43 0 0 0 .24.069c2.378.447 8.523 1.68 9.262 1.828a.84.84 0 0 1 .25.07c.083.043.157.1.22.169a.59.59 0 0 1 .19.338Z"/><path fill="#EF502E" d="M41.728 45.977a17.989 17.989 0 0 1-7.245 4.969c-.477.197-.963.37-1.458.517-.677.211-1.364.387-2.059.526-.51.11-1 .199-1.559.259a22.775 22.775 0 0 1-15.238-3.24c-.21-.12 10.892-23.67 7.504-19.565-.37-4.154-3.337-9.798-2.997-14.07.62-6.53 7.464-9.67 13.3-8.546a8.017 8.017 0 0 1 3.197 1.4v.1c-1.429 1.173 4.606 10.672 5.715 9.45.69 1.908 1.22 3.696 1.69 4.968 3.147 8.735 4.785 16.575-.85 23.232Z"/><path fill="#fff" d="M30.776 17.489a.14.14 0 0 1-.15.08 6.41 6.41 0 0 0-2.768-.11 6.631 6.631 0 0 0-2.707 1.252.08.08 0 0 1-.13 0 5.562 5.562 0 0 1-.77-2.395 3.48 3.48 0 0 1 .674-2.676 3.51 3.51 0 0 1 2.414-1.358c1.699-.12 3.257.944 3.587 3.289a4.537 4.537 0 0 1-.15 1.918Z"/><path fill="#353535" d="M26.16 16.753a3.514 3.514 0 0 1 3.287-.725 2.67 2.67 0 0 0-.18-.795 1.583 1.583 0 0 0-.77-.88 1.597 1.597 0 0 0-1.168-.114 1.86 1.86 0 0 0-1.154.995 1.84 1.84 0 0 0-.015 1.52ZM57.416 7.89l-14.989 7.73a.689.689 0 0 0-.41.329 5.6 5.6 0 0 1-1.129 1.838 6.007 6.007 0 0 1-3.537 1.779c-2.398.407-4.676-.895-4.556-1.362.31-.876.396-1.815.25-2.732-.22-2.047-1.25-2.793-.8-3.975a9.16 9.16 0 0 1 2.858-3.22 107.48 107.48 0 0 1 9.862-6.796C48.582-.696 52.24-.845 56.067 3.577a9.359 9.359 0 0 1 1.888 3.22.88.88 0 0 1-.54 1.093Z"/><path fill="#CC2525" d="M38.97 39.906c-1.819 5.386-5.995 8.546-11.89 10.265-8.185 2.365-15.429-.696-18.866-7.79 0 0 7.094-2.475 12.56-11.577a10.042 10.042 0 0 1 5.79-4.576 10.103 10.103 0 0 1 7.37.601 10.415 10.415 0 0 1 5.065 5.569 10.34 10.34 0 0 1-.03 7.508Z"/></g><defs><clipPath id="a"><path fill="#fff" d="M0 0h233v66H0z"/></clipPath></defs></svg>